<?xml version="1.0" standalone="no"?>
<svg xmlns="http://www.w3.org/2000/svg" viewBox="0 0 162 26.184" width="162" height="26.184"><g fill="#00247D" color="#00247D" transform="translate(0, 0) scale(0.6041667)"><svg width="48.0" height="40.0" x="0.0" y="0.0" viewBox="0 0 48 40"><path fill="currentColor" fill-rule="evenodd" d="M41.576 0L12.872 28.703v-2.95L38.625 0h-4.1l-10.9 10.898L12.725 0h-4.1l12.949 12.95-1.476 1.474L5.675 0h-4.1l16.474 16.475-1.475 1.475L0 1.376V40h2.9V8.378l2.087 2.086V40h2.9V13.364l2.086 2.087V40h2.9v-.146l10.752-10.752L34.525 40h2.951V15.253l2.086-2.087V40h2.9V10.266l2.087-2.086V40h2.898V5.434h-.153l.153-.154V1.178L12.872 35.754v-2.95L45.675 0h-4.1zm-8.849 20l1.848-1.848v3.697L32.727 20zm-19.855-1.65L14.522 20l-1.65 1.65V18.35zm16.329 5.176l1.476-1.474 3.898 3.899v2.952l-5.374-5.377zm-3.526 3.526l1.475-1.476 7.425 7.426v2.95l-8.9-8.9z"></path></svg></g><line x1="41" y1="1" x2="41" y2="23.167" stroke="#2ca1cc" stroke-linecap="round"></line><path fill="#2ca1cc" fill-rule="nonzero" d="M5.23 19.82L5.23 19.82Q3.17 19.82 2.03 18.96Q0.89 18.10 0.44 16.63Q0 15.17 0 13.37L0 13.37L0 6.50Q0 4.54 0.44 3.07Q0.89 1.61 2.03 0.80Q3.17 0 5.23 0L5.23 0Q7.06 0 8.12 0.67Q9.19 1.34 9.66 2.59Q10.13 3.84 10.13 5.59L10.13 5.59L10.13 7.13L7.56 7.13L7.56 5.76Q7.56 4.68 7.45 3.85Q7.34 3.02 6.86 2.57Q6.38 2.11 5.26 2.11L5.26 2.11Q4.10 2.11 3.58 2.60Q3.05 3.10 2.89 4.00Q2.74 4.90 2.74 6.10L2.74 6.10L2.74 13.80Q2.74 15.26 2.98 16.12Q3.22 16.97 3.77 17.33Q4.32 17.69 5.26 17.69L5.26 17.69Q6.36 17.69 6.84 17.20Q7.32 16.70 7.44 15.84Q7.56 14.98 7.56 13.82L7.56 13.82L7.56 12.38L10.13 12.38L10.13 13.82Q10.13 15.60 9.70 16.96Q9.26 18.31 8.21 19.07Q7.15 19.82 5.23 19.82ZM15.00 19.80L15.00 19.80Q14.18 19.80 13.56 19.33Q12.94 18.86 12.58 18.13Q12.22 17.40 12.22 16.58L12.22 16.58Q12.22 15.29 12.65 14.40Q13.08 13.51 13.84 12.90Q14.59 12.29 15.59 11.83Q16.58 11.38 17.69 10.94L17.69 10.94L17.69 9.96Q17.69 9.12 17.59 8.57Q17.50 8.02 17.20 7.74Q16.90 7.46 16.30 7.46L16.30 7.46Q15.77 7.46 15.44 7.70Q15.12 7.94 14.98 8.39Q14.83 8.83 14.83 9.43L14.83 9.43L14.83 10.13L12.29 10.03Q12.34 7.73 13.34 6.64Q14.35 5.54 16.46 5.54L16.46 5.54Q18.53 5.54 19.39 6.67Q20.26 7.80 20.26 9.94L20.26 9.94L20.26 16.27Q20.26 16.92 20.29 17.52Q20.33 18.12 20.39 18.64Q20.45 19.15 20.50 19.61L20.50 19.61L18.14 19.61Q18.07 19.22 17.96 18.64Q17.86 18.05 17.81 17.57L17.81 17.57Q17.57 18.38 16.88 19.09Q16.20 19.80 15.00 19.80ZM16.01 17.59L16.01 17.59Q16.39 17.59 16.73 17.38Q17.06 17.16 17.33 16.88Q17.59 16.61 17.69 16.44L17.69 16.44L17.69 12.50Q17.09 12.84 16.56 13.18Q16.03 13.51 15.64 13.88Q15.24 14.26 15.01 14.72Q14.78 15.19 14.78 15.79L14.78 15.79Q14.78 16.63 15.10 17.11Q15.41 17.59 16.01 17.59ZM25.37 19.61L22.80 19.61L22.80 5.74L25.37 5.74L25.37 7.70Q26.14 6.43 26.90 6Q27.67 5.57 28.44 5.57L28.44 5.57Q28.54 5.57 28.62 5.57Q28.70 5.57 28.85 5.59L28.85 5.59L28.85 8.42Q28.56 8.30 28.19 8.22Q27.82 8.14 27.43 8.14L27.43 8.14Q26.83 8.14 26.34 8.41Q25.85 8.69 25.37 9.48L25.37 9.48L25.37 19.61ZM34.03 23.90L34.03 23.90Q32.78 23.90 31.78 23.64Q30.77 23.38 30.19 22.80Q29.62 22.22 29.62 21.29L29.62 21.29Q29.62 20.62 29.90 20.11Q30.19 19.61 30.65 19.24Q31.10 18.86 31.61 18.62L31.61 18.62Q30.94 18.43 30.60 18.01Q30.26 17.59 30.26 17.14L30.26 17.14Q30.26 16.37 30.67 15.82Q31.08 15.26 31.80 14.62L31.80 14.62Q31.01 14.02 30.60 13.08Q30.19 12.14 30.19 10.49L30.19 10.49Q30.19 8.86 30.64 7.76Q31.08 6.67 31.96 6.11Q32.83 5.54 34.10 5.54L34.10 5.54Q35.23 5.54 35.92 5.93Q36.60 6.31 36.96 7.08L36.96 7.08Q37.08 6.89 37.61 6.42Q38.14 5.95 38.83 5.64L38.83 5.64L39.22 5.47L39.86 7.13Q39.55 7.18 39.04 7.36Q38.52 7.54 38.08 7.72Q37.63 7.90 37.51 8.02L37.51 8.02Q37.68 8.42 37.81 9.19Q37.94 9.96 37.94 10.56L37.94 10.56Q37.94 11.98 37.58 13.06Q37.22 14.14 36.40 14.75Q35.57 15.36 34.10 15.36L34.10 15.36Q33.79 15.36 33.43 15.31Q33.07 15.26 32.78 15.19L32.78 15.19Q32.64 15.41 32.48 15.70Q32.33 15.98 32.33 16.25L32.33 16.25Q32.33 16.51 32.60 16.67Q32.88 16.82 33.48 16.87L33.48 16.87L35.64 17.06Q37.27 17.21 38.06 18.05Q38.86 18.89 38.86 20.45L38.86 20.45Q38.86 21.58 38.33 22.36Q37.80 23.14 36.73 23.52Q35.66 23.90 34.03 23.90ZM34.22 21.89L34.22 21.89Q35.59 21.89 36.24 21.56Q36.89 21.24 36.89 20.52L36.89 20.52Q36.89 20.09 36.73 19.80Q36.58 19.51 36.17 19.34Q35.76 19.18 34.99 19.10L34.99 19.10L32.81 18.91Q32.54 19.18 32.30 19.44Q32.06 19.70 31.92 20.00Q31.78 20.30 31.78 20.64L31.78 20.64Q31.78 21.26 32.30 21.58Q32.83 21.89 34.22 21.89ZM34.10 13.56L34.10 13.56Q34.66 13.56 34.98 13.36Q35.30 13.15 35.47 12.76Q35.64 12.36 35.70 11.78Q35.76 11.21 35.76 10.49L35.76 10.49Q35.76 9.77 35.70 9.18Q35.64 8.59 35.48 8.17Q35.33 7.75 35.00 7.54Q34.68 7.32 34.13 7.32L34.13 7.32Q33.60 7.32 33.25 7.54Q32.90 7.75 32.74 8.15Q32.57 8.54 32.50 9.13Q32.42 9.72 32.42 10.49L32.42 10.49Q32.42 11.14 32.48 11.70Q32.54 12.26 32.72 12.67Q32.90 13.08 33.24 13.32Q33.58 13.56 34.10 13.56ZM44.59 19.80L44.59 19.80Q43.06 19.80 42.17 19.18Q41.28 18.55 40.91 17.40Q40.54 16.25 40.54 14.69L40.54 14.69L40.54 10.66Q40.54 9.10 40.91 7.94Q41.28 6.79 42.17 6.17Q43.06 5.54 44.59 5.54L44.59 5.54Q46.13 5.54 47.00 6.17Q47.88 6.79 48.25 7.94Q48.62 9.10 48.62 10.66L48.62 10.66L48.62 14.69Q48.62 16.25 48.25 17.40Q47.88 18.55 47.00 19.18Q46.13 19.80 44.59 19.80ZM44.59 17.90L44.59 17.90Q45.34 17.90 45.64 17.47Q45.94 17.04 46.00 16.33Q46.06 15.62 46.06 14.86L46.06 14.86L46.06 10.51Q46.06 9.72 46.00 9.02Q45.94 8.33 45.64 7.88Q45.34 7.44 44.59 7.44L44.59 7.44Q43.85 7.44 43.54 7.88Q43.22 8.33 43.16 9.02Q43.10 9.72 43.10 10.51L43.10 10.51L43.10 14.86Q43.10 15.62 43.16 16.33Q43.22 17.04 43.54 17.47Q43.85 17.90 44.59 17.90ZM58.85 19.61L56.64 19.61L57.00 0.17L59.66 0.17L63.10 15.94L66.55 0.17L69.19 0.17L69.55 19.61L67.37 19.61L67.15 5.50L63.86 19.61L62.33 19.61L59.06 5.50L58.85 19.61ZM76.13 19.80L76.13 19.80Q74.59 19.80 73.70 19.18Q72.82 18.55 72.44 17.40Q72.07 16.25 72.07 14.69L72.07 14.69L72.07 10.66Q72.07 9.10 72.44 7.94Q72.82 6.79 73.70 6.17Q74.59 5.54 76.13 5.54L76.13 5.54Q77.66 5.54 78.54 6.17Q79.42 6.79 79.79 7.94Q80.16 9.10 80.16 10.66L80.16 10.66L80.16 14.69Q80.16 16.25 79.79 17.40Q79.42 18.55 78.54 19.18Q77.66 19.80 76.13 19.80ZM76.13 17.90L76.13 17.90Q76.87 17.90 77.17 17.47Q77.47 17.04 77.53 16.33Q77.59 15.62 77.59 14.86L77.59 14.86L77.59 10.51Q77.59 9.72 77.53 9.02Q77.47 8.33 77.17 7.88Q76.87 7.44 76.13 7.44L76.13 7.44Q75.38 7.44 75.07 7.88Q74.76 8.33 74.70 9.02Q74.64 9.72 74.64 10.51L74.64 10.51L74.64 14.86Q74.64 15.62 74.70 16.33Q74.76 17.04 75.07 17.47Q75.38 17.90 76.13 17.90ZM85.08 19.61L82.51 19.61L82.51 5.74L85.08 5.74L85.08 7.10Q85.78 6.46 86.62 6Q87.46 5.54 88.46 5.54L88.46 5.54Q89.30 5.54 89.75 5.98Q90.19 6.41 90.37 7.06Q90.55 7.70 90.55 8.38L90.55 8.38L90.55 19.61L87.98 19.61L87.98 9.12Q87.98 8.38 87.77 7.97Q87.55 7.56 86.88 7.56L86.88 7.56Q86.45 7.56 85.98 7.81Q85.51 8.06 85.08 8.42L85.08 8.42L85.08 19.61ZM96.89 19.80L96.89 19.80Q95.26 19.80 94.37 19.16Q93.48 18.53 93.13 17.29Q92.78 16.06 92.78 14.26L92.78 14.26L92.78 11.09Q92.78 9.24 93.14 8.02Q93.50 6.79 94.40 6.17Q95.30 5.54 96.89 5.54L96.89 5.54Q98.64 5.54 99.47 6.26Q100.30 6.98 100.56 8.34Q100.82 9.70 100.82 11.59L100.82 11.59L100.82 12.72L95.35 12.72L95.35 15.50Q95.35 16.34 95.51 16.87Q95.66 17.40 96.01 17.65Q96.36 17.90 96.91 17.90L96.91 17.90Q97.49 17.90 97.79 17.63Q98.09 17.35 98.20 16.84Q98.30 16.32 98.30 15.62L98.30 15.62L98.30 14.78L100.80 14.78L100.80 15.31Q100.80 17.40 99.91 18.60Q99.02 19.80 96.89 19.80ZM95.35 10.58L95.35 11.33L98.30 11.33L98.30 10.08Q98.30 9.22 98.21 8.63Q98.11 8.04 97.81 7.74Q97.51 7.44 96.86 7.44L96.86 7.44Q96.24 7.44 95.92 7.73Q95.59 8.02 95.47 8.70Q95.35 9.38 95.35 10.58L95.35 10.58ZM103.25 23.09L102.94 23.09L102.94 21.12Q103.87 21.12 104.42 21.04Q104.98 20.95 105.22 20.72Q105.46 20.50 105.46 20.09L105.46 20.09Q105.46 19.87 105.29 19.13Q105.12 18.38 104.93 17.54L104.93 17.54L102.14 5.74L104.74 5.74L106.61 16.10L108.41 5.74L111.00 5.74L107.69 20.38Q107.47 21.38 106.90 21.97Q106.32 22.56 105.42 22.82Q104.52 23.09 103.25 23.09L103.25 23.09Z" transform="translate(51, 2.28)"></path></svg>